<mxfile host="app.diagrams.net" modified="2023-12-11T16:05:50.601Z" agent="Mozilla/5.0 (Windows NT 10.0; Win64; x64) AppleWebKit/537.36 (KHTML, like Gecko) Chrome/119.0.0.0 Safari/537.36" etag="CLGQtV00KbBAl-2-Qr1_" version="22.1.7" type="device">
  <diagram name="Halaman-1" id="gPjQa7cxYGfUGsA3XNUa">
    <mxGraphModel dx="2670" dy="876" grid="1" gridSize="10" guides="1" tooltips="1" connect="1" arrows="1" fold="1" page="1" pageScale="1" pageWidth="827" pageHeight="1169" math="0" shadow="0">
      <root>
        <mxCell id="0" />
        <mxCell id="1" parent="0" />
        <mxCell id="nacKLoMMVzw_O25OrjiA-8" value="" style="shape=table;startSize=0;container=1;collapsible=0;childLayout=tableLayout;" vertex="1" parent="1">
          <mxGeometry x="-800" y="80" width="1574" height="1250" as="geometry" />
        </mxCell>
        <mxCell id="nacKLoMMVzw_O25OrjiA-9" value="" style="shape=tableRow;horizontal=0;startSize=0;swimlaneHead=0;swimlaneBody=0;strokeColor=inherit;top=0;left=0;bottom=0;right=0;collapsible=0;dropTarget=0;fillColor=none;points=[[0,0.5],[1,0.5]];portConstraint=eastwest;" vertex="1" parent="nacKLoMMVzw_O25OrjiA-8">
          <mxGeometry width="1574" height="68" as="geometry" />
        </mxCell>
        <mxCell id="nacKLoMMVzw_O25OrjiA-10" value="Player 1" style="shape=partialRectangle;html=1;whiteSpace=wrap;connectable=0;strokeColor=inherit;overflow=hidden;fillColor=none;top=0;left=0;bottom=0;right=0;pointerEvents=1;" vertex="1" parent="nacKLoMMVzw_O25OrjiA-9">
          <mxGeometry width="524" height="68" as="geometry">
            <mxRectangle width="524" height="68" as="alternateBounds" />
          </mxGeometry>
        </mxCell>
        <mxCell id="nacKLoMMVzw_O25OrjiA-11" value="Sistem" style="shape=partialRectangle;html=1;whiteSpace=wrap;connectable=0;strokeColor=inherit;overflow=hidden;fillColor=none;top=0;left=0;bottom=0;right=0;pointerEvents=1;" vertex="1" parent="nacKLoMMVzw_O25OrjiA-9">
          <mxGeometry x="524" width="526" height="68" as="geometry">
            <mxRectangle width="526" height="68" as="alternateBounds" />
          </mxGeometry>
        </mxCell>
        <mxCell id="nacKLoMMVzw_O25OrjiA-12" value="Player 2" style="shape=partialRectangle;html=1;whiteSpace=wrap;connectable=0;strokeColor=inherit;overflow=hidden;fillColor=none;top=0;left=0;bottom=0;right=0;pointerEvents=1;" vertex="1" parent="nacKLoMMVzw_O25OrjiA-9">
          <mxGeometry x="1050" width="524" height="68" as="geometry">
            <mxRectangle width="524" height="68" as="alternateBounds" />
          </mxGeometry>
        </mxCell>
        <mxCell id="nacKLoMMVzw_O25OrjiA-13" value="" style="shape=tableRow;horizontal=0;startSize=0;swimlaneHead=0;swimlaneBody=0;strokeColor=inherit;top=0;left=0;bottom=0;right=0;collapsible=0;dropTarget=0;fillColor=none;points=[[0,0.5],[1,0.5]];portConstraint=eastwest;" vertex="1" parent="nacKLoMMVzw_O25OrjiA-8">
          <mxGeometry y="68" width="1574" height="1182" as="geometry" />
        </mxCell>
        <mxCell id="nacKLoMMVzw_O25OrjiA-14" value="" style="shape=partialRectangle;html=1;whiteSpace=wrap;connectable=0;strokeColor=inherit;overflow=hidden;fillColor=none;top=0;left=0;bottom=0;right=0;pointerEvents=1;" vertex="1" parent="nacKLoMMVzw_O25OrjiA-13">
          <mxGeometry width="524" height="1182" as="geometry">
            <mxRectangle width="524" height="1182" as="alternateBounds" />
          </mxGeometry>
        </mxCell>
        <mxCell id="nacKLoMMVzw_O25OrjiA-15" value="" style="shape=partialRectangle;html=1;whiteSpace=wrap;connectable=0;strokeColor=inherit;overflow=hidden;fillColor=none;top=0;left=0;bottom=0;right=0;pointerEvents=1;" vertex="1" parent="nacKLoMMVzw_O25OrjiA-13">
          <mxGeometry x="524" width="526" height="1182" as="geometry">
            <mxRectangle width="526" height="1182" as="alternateBounds" />
          </mxGeometry>
        </mxCell>
        <mxCell id="nacKLoMMVzw_O25OrjiA-16" value="" style="shape=partialRectangle;html=1;whiteSpace=wrap;connectable=0;strokeColor=inherit;overflow=hidden;fillColor=none;top=0;left=0;bottom=0;right=0;pointerEvents=1;" vertex="1" parent="nacKLoMMVzw_O25OrjiA-13">
          <mxGeometry x="1050" width="524" height="1182" as="geometry">
            <mxRectangle width="524" height="1182" as="alternateBounds" />
          </mxGeometry>
        </mxCell>
        <mxCell id="nacKLoMMVzw_O25OrjiA-17" value="&lt;b&gt;&lt;font style=&quot;font-size: 48px;&quot;&gt;Quiz&lt;/font&gt;&lt;/b&gt;" style="text;html=1;strokeColor=none;fillColor=none;align=center;verticalAlign=middle;whiteSpace=wrap;rounded=0;" vertex="1" parent="1">
          <mxGeometry x="-23" y="30" width="60" height="30" as="geometry" />
        </mxCell>
        <mxCell id="nacKLoMMVzw_O25OrjiA-22" style="edgeStyle=orthogonalEdgeStyle;rounded=0;orthogonalLoop=1;jettySize=auto;html=1;exitX=1;exitY=0.5;exitDx=0;exitDy=0;entryX=0;entryY=0.5;entryDx=0;entryDy=0;" edge="1" parent="1" source="nacKLoMMVzw_O25OrjiA-18" target="nacKLoMMVzw_O25OrjiA-21">
          <mxGeometry relative="1" as="geometry" />
        </mxCell>
        <mxCell id="nacKLoMMVzw_O25OrjiA-77" style="edgeStyle=orthogonalEdgeStyle;rounded=0;orthogonalLoop=1;jettySize=auto;html=1;exitX=0.5;exitY=1;exitDx=0;exitDy=0;entryX=0.5;entryY=0;entryDx=0;entryDy=0;" edge="1" parent="1" source="nacKLoMMVzw_O25OrjiA-18" target="nacKLoMMVzw_O25OrjiA-72">
          <mxGeometry relative="1" as="geometry" />
        </mxCell>
        <mxCell id="nacKLoMMVzw_O25OrjiA-18" value="Menjjawab pertanyaan" style="rounded=1;whiteSpace=wrap;html=1;" vertex="1" parent="1">
          <mxGeometry x="-740" y="480" width="120" height="60" as="geometry" />
        </mxCell>
        <mxCell id="nacKLoMMVzw_O25OrjiA-20" style="edgeStyle=orthogonalEdgeStyle;rounded=0;orthogonalLoop=1;jettySize=auto;html=1;exitX=0.5;exitY=1;exitDx=0;exitDy=0;entryX=0.5;entryY=0;entryDx=0;entryDy=0;" edge="1" parent="1" source="nacKLoMMVzw_O25OrjiA-19">
          <mxGeometry relative="1" as="geometry">
            <mxPoint x="7.000000000000227" y="250" as="targetPoint" />
          </mxGeometry>
        </mxCell>
        <mxCell id="nacKLoMMVzw_O25OrjiA-19" value="" style="ellipse;whiteSpace=wrap;html=1;aspect=fixed;fillColor=#000000;" vertex="1" parent="1">
          <mxGeometry x="-13" y="160" width="40" height="40" as="geometry" />
        </mxCell>
        <mxCell id="nacKLoMMVzw_O25OrjiA-26" style="edgeStyle=orthogonalEdgeStyle;rounded=0;orthogonalLoop=1;jettySize=auto;html=1;exitX=1;exitY=0.5;exitDx=0;exitDy=0;" edge="1" parent="1" source="nacKLoMMVzw_O25OrjiA-21" target="nacKLoMMVzw_O25OrjiA-25">
          <mxGeometry relative="1" as="geometry" />
        </mxCell>
        <mxCell id="nacKLoMMVzw_O25OrjiA-39" style="edgeStyle=orthogonalEdgeStyle;rounded=0;orthogonalLoop=1;jettySize=auto;html=1;exitX=0.5;exitY=1;exitDx=0;exitDy=0;" edge="1" parent="1" source="nacKLoMMVzw_O25OrjiA-21" target="nacKLoMMVzw_O25OrjiA-32">
          <mxGeometry relative="1" as="geometry">
            <Array as="points">
              <mxPoint x="-460" y="665" />
            </Array>
          </mxGeometry>
        </mxCell>
        <mxCell id="nacKLoMMVzw_O25OrjiA-21" value="" style="rhombus;whiteSpace=wrap;html=1;" vertex="1" parent="1">
          <mxGeometry x="-500" y="470" width="80" height="80" as="geometry" />
        </mxCell>
        <mxCell id="nacKLoMMVzw_O25OrjiA-23" value="Penambahan Poin" style="rounded=1;whiteSpace=wrap;html=1;" vertex="1" parent="1">
          <mxGeometry x="-160" y="360" width="120" height="60" as="geometry" />
        </mxCell>
        <mxCell id="nacKLoMMVzw_O25OrjiA-25" value="" style="line;strokeWidth=4;direction=south;html=1;perimeter=backbonePerimeter;points=[];outlineConnect=0;" vertex="1" parent="1">
          <mxGeometry x="-240" y="400" width="10" height="90" as="geometry" />
        </mxCell>
        <mxCell id="nacKLoMMVzw_O25OrjiA-27" value="" style="edgeStyle=elbowEdgeStyle;elbow=horizontal;endArrow=classic;html=1;curved=0;rounded=0;endSize=8;startSize=8;entryX=0;entryY=0.5;entryDx=0;entryDy=0;" edge="1" parent="1" source="nacKLoMMVzw_O25OrjiA-25" target="nacKLoMMVzw_O25OrjiA-23">
          <mxGeometry width="50" height="50" relative="1" as="geometry">
            <mxPoint x="-50" y="630" as="sourcePoint" />
            <mxPoint y="580" as="targetPoint" />
          </mxGeometry>
        </mxCell>
        <mxCell id="nacKLoMMVzw_O25OrjiA-28" value="Penambahan Poin Skill" style="rounded=1;whiteSpace=wrap;html=1;" vertex="1" parent="1">
          <mxGeometry x="-150" y="440" width="120" height="60" as="geometry" />
        </mxCell>
        <mxCell id="nacKLoMMVzw_O25OrjiA-29" value="" style="edgeStyle=elbowEdgeStyle;elbow=horizontal;endArrow=classic;html=1;curved=0;rounded=0;endSize=8;startSize=8;entryX=0;entryY=0.5;entryDx=0;entryDy=0;" edge="1" parent="1" source="nacKLoMMVzw_O25OrjiA-25" target="nacKLoMMVzw_O25OrjiA-28">
          <mxGeometry width="50" height="50" relative="1" as="geometry">
            <mxPoint x="-224" y="455" as="sourcePoint" />
            <mxPoint x="-150" y="400" as="targetPoint" />
            <Array as="points">
              <mxPoint x="-200" y="450" />
            </Array>
          </mxGeometry>
        </mxCell>
        <mxCell id="nacKLoMMVzw_O25OrjiA-30" value="Benar" style="text;html=1;strokeColor=none;fillColor=none;align=center;verticalAlign=middle;whiteSpace=wrap;rounded=0;" vertex="1" parent="1">
          <mxGeometry x="-413" y="480" width="60" height="30" as="geometry" />
        </mxCell>
        <mxCell id="nacKLoMMVzw_O25OrjiA-31" value="Pengurangan Poin" style="rounded=1;whiteSpace=wrap;html=1;" vertex="1" parent="1">
          <mxGeometry x="-160" y="580" width="120" height="60" as="geometry" />
        </mxCell>
        <mxCell id="nacKLoMMVzw_O25OrjiA-32" value="" style="line;strokeWidth=4;direction=south;html=1;perimeter=backbonePerimeter;points=[];outlineConnect=0;" vertex="1" parent="1">
          <mxGeometry x="-240" y="620" width="10" height="90" as="geometry" />
        </mxCell>
        <mxCell id="nacKLoMMVzw_O25OrjiA-33" value="" style="edgeStyle=elbowEdgeStyle;elbow=horizontal;endArrow=classic;html=1;curved=0;rounded=0;endSize=8;startSize=8;entryX=0;entryY=0.5;entryDx=0;entryDy=0;" edge="1" source="nacKLoMMVzw_O25OrjiA-32" target="nacKLoMMVzw_O25OrjiA-31" parent="1">
          <mxGeometry width="50" height="50" relative="1" as="geometry">
            <mxPoint x="-50" y="850" as="sourcePoint" />
            <mxPoint y="800" as="targetPoint" />
          </mxGeometry>
        </mxCell>
        <mxCell id="nacKLoMMVzw_O25OrjiA-34" value="Tidak ada Penambahan Poin Skill" style="rounded=1;whiteSpace=wrap;html=1;" vertex="1" parent="1">
          <mxGeometry x="-150" y="660" width="120" height="60" as="geometry" />
        </mxCell>
        <mxCell id="nacKLoMMVzw_O25OrjiA-35" value="" style="edgeStyle=elbowEdgeStyle;elbow=horizontal;endArrow=classic;html=1;curved=0;rounded=0;endSize=8;startSize=8;entryX=0;entryY=0.5;entryDx=0;entryDy=0;" edge="1" source="nacKLoMMVzw_O25OrjiA-32" target="nacKLoMMVzw_O25OrjiA-34" parent="1">
          <mxGeometry width="50" height="50" relative="1" as="geometry">
            <mxPoint x="-224" y="675" as="sourcePoint" />
            <mxPoint x="-150" y="620" as="targetPoint" />
            <Array as="points">
              <mxPoint x="-200" y="670" />
            </Array>
          </mxGeometry>
        </mxCell>
        <mxCell id="nacKLoMMVzw_O25OrjiA-40" value="Salah" style="text;html=1;strokeColor=none;fillColor=none;align=center;verticalAlign=middle;whiteSpace=wrap;rounded=0;" vertex="1" parent="1">
          <mxGeometry x="-460" y="580" width="60" height="30" as="geometry" />
        </mxCell>
        <mxCell id="nacKLoMMVzw_O25OrjiA-65" style="edgeStyle=orthogonalEdgeStyle;rounded=0;orthogonalLoop=1;jettySize=auto;html=1;exitX=0;exitY=0.5;exitDx=0;exitDy=0;entryX=1;entryY=0.5;entryDx=0;entryDy=0;" edge="1" parent="1" source="nacKLoMMVzw_O25OrjiA-42" target="nacKLoMMVzw_O25OrjiA-47">
          <mxGeometry relative="1" as="geometry" />
        </mxCell>
        <mxCell id="nacKLoMMVzw_O25OrjiA-42" value="Menjjawab pertanyaan" style="rounded=1;whiteSpace=wrap;html=1;" vertex="1" parent="1">
          <mxGeometry x="610" y="480" width="120" height="60" as="geometry" />
        </mxCell>
        <mxCell id="nacKLoMMVzw_O25OrjiA-64" style="edgeStyle=orthogonalEdgeStyle;rounded=0;orthogonalLoop=1;jettySize=auto;html=1;exitX=0;exitY=0.5;exitDx=0;exitDy=0;" edge="1" parent="1" source="nacKLoMMVzw_O25OrjiA-47" target="nacKLoMMVzw_O25OrjiA-49">
          <mxGeometry relative="1" as="geometry" />
        </mxCell>
        <mxCell id="nacKLoMMVzw_O25OrjiA-68" style="edgeStyle=orthogonalEdgeStyle;rounded=0;orthogonalLoop=1;jettySize=auto;html=1;exitX=0.5;exitY=1;exitDx=0;exitDy=0;" edge="1" parent="1" source="nacKLoMMVzw_O25OrjiA-47" target="nacKLoMMVzw_O25OrjiA-55">
          <mxGeometry relative="1" as="geometry">
            <Array as="points">
              <mxPoint x="470" y="650" />
            </Array>
          </mxGeometry>
        </mxCell>
        <mxCell id="nacKLoMMVzw_O25OrjiA-47" value="" style="rhombus;whiteSpace=wrap;html=1;" vertex="1" parent="1">
          <mxGeometry x="430" y="470" width="80" height="80" as="geometry" />
        </mxCell>
        <mxCell id="nacKLoMMVzw_O25OrjiA-48" value="Penambahan Poin" style="rounded=1;whiteSpace=wrap;html=1;" vertex="1" parent="1">
          <mxGeometry x="40" y="360" width="120" height="60" as="geometry" />
        </mxCell>
        <mxCell id="nacKLoMMVzw_O25OrjiA-49" value="" style="line;strokeWidth=4;direction=south;html=1;perimeter=backbonePerimeter;points=[];outlineConnect=0;" vertex="1" parent="1">
          <mxGeometry x="230" y="380" width="10" height="90" as="geometry" />
        </mxCell>
        <mxCell id="nacKLoMMVzw_O25OrjiA-51" value="Penambahan Poin Skill" style="rounded=1;whiteSpace=wrap;html=1;" vertex="1" parent="1">
          <mxGeometry x="40" y="440" width="120" height="60" as="geometry" />
        </mxCell>
        <mxCell id="nacKLoMMVzw_O25OrjiA-53" value="Benar" style="text;html=1;strokeColor=none;fillColor=none;align=center;verticalAlign=middle;whiteSpace=wrap;rounded=0;" vertex="1" parent="1">
          <mxGeometry x="354" y="480" width="60" height="30" as="geometry" />
        </mxCell>
        <mxCell id="nacKLoMMVzw_O25OrjiA-54" value="Pengurangan Poin" style="rounded=1;whiteSpace=wrap;html=1;" vertex="1" parent="1">
          <mxGeometry x="50" y="565" width="120" height="60" as="geometry" />
        </mxCell>
        <mxCell id="nacKLoMMVzw_O25OrjiA-55" value="" style="line;strokeWidth=4;direction=south;html=1;perimeter=backbonePerimeter;points=[];outlineConnect=0;" vertex="1" parent="1">
          <mxGeometry x="240" y="610" width="10" height="90" as="geometry" />
        </mxCell>
        <mxCell id="nacKLoMMVzw_O25OrjiA-57" value="Tidak ada Penambahan Poin Skill" style="rounded=1;whiteSpace=wrap;html=1;" vertex="1" parent="1">
          <mxGeometry x="50" y="650" width="120" height="60" as="geometry" />
        </mxCell>
        <mxCell id="nacKLoMMVzw_O25OrjiA-59" value="Salah" style="text;html=1;strokeColor=none;fillColor=none;align=center;verticalAlign=middle;whiteSpace=wrap;rounded=0;" vertex="1" parent="1">
          <mxGeometry x="354" y="620" width="60" height="30" as="geometry" />
        </mxCell>
        <mxCell id="nacKLoMMVzw_O25OrjiA-62" style="edgeStyle=orthogonalEdgeStyle;rounded=0;orthogonalLoop=1;jettySize=auto;html=1;exitX=0;exitY=0.5;exitDx=0;exitDy=0;entryX=0.5;entryY=0;entryDx=0;entryDy=0;" edge="1" parent="1" source="nacKLoMMVzw_O25OrjiA-61" target="nacKLoMMVzw_O25OrjiA-18">
          <mxGeometry relative="1" as="geometry" />
        </mxCell>
        <mxCell id="nacKLoMMVzw_O25OrjiA-63" style="edgeStyle=orthogonalEdgeStyle;rounded=0;orthogonalLoop=1;jettySize=auto;html=1;exitX=1;exitY=0.5;exitDx=0;exitDy=0;entryX=0.5;entryY=0;entryDx=0;entryDy=0;" edge="1" parent="1" source="nacKLoMMVzw_O25OrjiA-61" target="nacKLoMMVzw_O25OrjiA-42">
          <mxGeometry relative="1" as="geometry" />
        </mxCell>
        <mxCell id="nacKLoMMVzw_O25OrjiA-74" style="edgeStyle=orthogonalEdgeStyle;rounded=0;orthogonalLoop=1;jettySize=auto;html=1;exitX=0.5;exitY=1;exitDx=0;exitDy=0;entryX=0.5;entryY=0;entryDx=0;entryDy=0;" edge="1" parent="1" source="nacKLoMMVzw_O25OrjiA-61" target="nacKLoMMVzw_O25OrjiA-73">
          <mxGeometry relative="1" as="geometry" />
        </mxCell>
        <mxCell id="nacKLoMMVzw_O25OrjiA-61" value="Memberikan pertanyaan" style="rounded=1;whiteSpace=wrap;html=1;" vertex="1" parent="1">
          <mxGeometry x="-53" y="250" width="120" height="60" as="geometry" />
        </mxCell>
        <mxCell id="nacKLoMMVzw_O25OrjiA-66" value="" style="edgeStyle=elbowEdgeStyle;elbow=horizontal;endArrow=classic;html=1;curved=0;rounded=0;endSize=8;startSize=8;entryX=1;entryY=0.5;entryDx=0;entryDy=0;" edge="1" parent="1" source="nacKLoMMVzw_O25OrjiA-49" target="nacKLoMMVzw_O25OrjiA-48">
          <mxGeometry width="50" height="50" relative="1" as="geometry">
            <mxPoint x="120" y="580" as="sourcePoint" />
            <mxPoint x="204" y="600" as="targetPoint" />
            <Array as="points">
              <mxPoint x="210" y="420" />
            </Array>
          </mxGeometry>
        </mxCell>
        <mxCell id="nacKLoMMVzw_O25OrjiA-67" value="" style="edgeStyle=elbowEdgeStyle;elbow=horizontal;endArrow=classic;html=1;curved=0;rounded=0;endSize=8;startSize=8;entryX=1;entryY=0.5;entryDx=0;entryDy=0;" edge="1" parent="1" source="nacKLoMMVzw_O25OrjiA-49" target="nacKLoMMVzw_O25OrjiA-51">
          <mxGeometry width="50" height="50" relative="1" as="geometry">
            <mxPoint x="243" y="430" as="sourcePoint" />
            <mxPoint x="170" y="400" as="targetPoint" />
            <Array as="points">
              <mxPoint x="210" y="430" />
            </Array>
          </mxGeometry>
        </mxCell>
        <mxCell id="nacKLoMMVzw_O25OrjiA-69" value="" style="edgeStyle=elbowEdgeStyle;elbow=horizontal;endArrow=classic;html=1;curved=0;rounded=0;endSize=8;startSize=8;entryX=1;entryY=0.5;entryDx=0;entryDy=0;" edge="1" parent="1">
          <mxGeometry width="50" height="50" relative="1" as="geometry">
            <mxPoint x="240" y="625" as="sourcePoint" />
            <mxPoint x="167" y="595" as="targetPoint" />
            <Array as="points">
              <mxPoint x="217" y="625" />
            </Array>
          </mxGeometry>
        </mxCell>
        <mxCell id="nacKLoMMVzw_O25OrjiA-71" value="" style="edgeStyle=elbowEdgeStyle;elbow=horizontal;endArrow=classic;html=1;curved=0;rounded=0;endSize=8;startSize=8;entryX=1;entryY=0.5;entryDx=0;entryDy=0;" edge="1" parent="1">
          <mxGeometry width="50" height="50" relative="1" as="geometry">
            <mxPoint x="243" y="645" as="sourcePoint" />
            <mxPoint x="170" y="685" as="targetPoint" />
            <Array as="points">
              <mxPoint x="220" y="645" />
            </Array>
          </mxGeometry>
        </mxCell>
        <mxCell id="nacKLoMMVzw_O25OrjiA-76" style="edgeStyle=orthogonalEdgeStyle;rounded=0;orthogonalLoop=1;jettySize=auto;html=1;exitX=1;exitY=0.5;exitDx=0;exitDy=0;entryX=0;entryY=0.5;entryDx=0;entryDy=0;" edge="1" parent="1" source="nacKLoMMVzw_O25OrjiA-72" target="nacKLoMMVzw_O25OrjiA-75">
          <mxGeometry relative="1" as="geometry" />
        </mxCell>
        <mxCell id="nacKLoMMVzw_O25OrjiA-72" value="Menggunakan Skill" style="rounded=1;whiteSpace=wrap;html=1;" vertex="1" parent="1">
          <mxGeometry x="-740" y="950" width="120" height="60" as="geometry" />
        </mxCell>
        <mxCell id="nacKLoMMVzw_O25OrjiA-73" value="Pemberian Skill pada point yang tercukupi" style="rounded=1;whiteSpace=wrap;html=1;" vertex="1" parent="1">
          <mxGeometry x="-53" y="790" width="120" height="60" as="geometry" />
        </mxCell>
        <mxCell id="nacKLoMMVzw_O25OrjiA-79" style="edgeStyle=orthogonalEdgeStyle;rounded=0;orthogonalLoop=1;jettySize=auto;html=1;exitX=1;exitY=0.5;exitDx=0;exitDy=0;entryX=0;entryY=0.5;entryDx=0;entryDy=0;" edge="1" parent="1" source="nacKLoMMVzw_O25OrjiA-75" target="nacKLoMMVzw_O25OrjiA-78">
          <mxGeometry relative="1" as="geometry" />
        </mxCell>
        <mxCell id="nacKLoMMVzw_O25OrjiA-75" value="" style="rhombus;whiteSpace=wrap;html=1;" vertex="1" parent="1">
          <mxGeometry x="-493" y="940" width="80" height="80" as="geometry" />
        </mxCell>
        <mxCell id="nacKLoMMVzw_O25OrjiA-78" value="Pengurangan point pada player 2" style="rounded=1;whiteSpace=wrap;html=1;" vertex="1" parent="1">
          <mxGeometry x="-220" y="950" width="120" height="60" as="geometry" />
        </mxCell>
        <mxCell id="nacKLoMMVzw_O25OrjiA-80" value="Benar" style="text;html=1;strokeColor=none;fillColor=none;align=center;verticalAlign=middle;whiteSpace=wrap;rounded=0;" vertex="1" parent="1">
          <mxGeometry x="-413" y="950" width="60" height="30" as="geometry" />
        </mxCell>
        <mxCell id="nacKLoMMVzw_O25OrjiA-87" style="edgeStyle=orthogonalEdgeStyle;rounded=0;orthogonalLoop=1;jettySize=auto;html=1;exitX=0;exitY=0.5;exitDx=0;exitDy=0;entryX=1;entryY=0.5;entryDx=0;entryDy=0;" edge="1" parent="1" source="nacKLoMMVzw_O25OrjiA-82" target="nacKLoMMVzw_O25OrjiA-84">
          <mxGeometry relative="1" as="geometry" />
        </mxCell>
        <mxCell id="nacKLoMMVzw_O25OrjiA-82" value="Menggunakan Skill" style="rounded=1;whiteSpace=wrap;html=1;" vertex="1" parent="1">
          <mxGeometry x="610" y="950" width="120" height="60" as="geometry" />
        </mxCell>
        <mxCell id="nacKLoMMVzw_O25OrjiA-88" style="edgeStyle=orthogonalEdgeStyle;rounded=0;orthogonalLoop=1;jettySize=auto;html=1;exitX=0;exitY=0.5;exitDx=0;exitDy=0;entryX=1;entryY=0.5;entryDx=0;entryDy=0;" edge="1" parent="1" source="nacKLoMMVzw_O25OrjiA-84" target="nacKLoMMVzw_O25OrjiA-85">
          <mxGeometry relative="1" as="geometry" />
        </mxCell>
        <mxCell id="nacKLoMMVzw_O25OrjiA-84" value="" style="rhombus;whiteSpace=wrap;html=1;" vertex="1" parent="1">
          <mxGeometry x="354" y="940" width="80" height="80" as="geometry" />
        </mxCell>
        <mxCell id="nacKLoMMVzw_O25OrjiA-85" value="Pengurangan point pada player 2" style="rounded=1;whiteSpace=wrap;html=1;" vertex="1" parent="1">
          <mxGeometry x="67" y="950" width="120" height="60" as="geometry" />
        </mxCell>
        <mxCell id="nacKLoMMVzw_O25OrjiA-86" value="Benar" style="text;html=1;strokeColor=none;fillColor=none;align=center;verticalAlign=middle;whiteSpace=wrap;rounded=0;" vertex="1" parent="1">
          <mxGeometry x="480" y="950" width="60" height="30" as="geometry" />
        </mxCell>
        <mxCell id="nacKLoMMVzw_O25OrjiA-89" value="" style="line;strokeWidth=2;html=1;" vertex="1" parent="1">
          <mxGeometry x="-73" y="1100" width="160" height="10" as="geometry" />
        </mxCell>
        <mxCell id="nacKLoMMVzw_O25OrjiA-91" style="edgeStyle=orthogonalEdgeStyle;rounded=0;orthogonalLoop=1;jettySize=auto;html=1;exitX=0.5;exitY=1;exitDx=0;exitDy=0;entryX=0.75;entryY=0.5;entryDx=0;entryDy=0;entryPerimeter=0;" edge="1" parent="1" source="nacKLoMMVzw_O25OrjiA-85" target="nacKLoMMVzw_O25OrjiA-89">
          <mxGeometry relative="1" as="geometry" />
        </mxCell>
        <mxCell id="nacKLoMMVzw_O25OrjiA-92" style="edgeStyle=orthogonalEdgeStyle;rounded=0;orthogonalLoop=1;jettySize=auto;html=1;exitX=0.5;exitY=1;exitDx=0;exitDy=0;entryX=0.25;entryY=0.5;entryDx=0;entryDy=0;entryPerimeter=0;" edge="1" parent="1" source="nacKLoMMVzw_O25OrjiA-78" target="nacKLoMMVzw_O25OrjiA-89">
          <mxGeometry relative="1" as="geometry" />
        </mxCell>
        <mxCell id="nacKLoMMVzw_O25OrjiA-96" style="edgeStyle=orthogonalEdgeStyle;rounded=0;orthogonalLoop=1;jettySize=auto;html=1;exitX=0.5;exitY=1;exitDx=0;exitDy=0;entryX=0.5;entryY=0;entryDx=0;entryDy=0;" edge="1" parent="1" source="nacKLoMMVzw_O25OrjiA-93" target="nacKLoMMVzw_O25OrjiA-95">
          <mxGeometry relative="1" as="geometry" />
        </mxCell>
        <mxCell id="nacKLoMMVzw_O25OrjiA-93" value="End Rusult" style="rounded=1;whiteSpace=wrap;html=1;" vertex="1" parent="1">
          <mxGeometry x="-53" y="1169" width="120" height="60" as="geometry" />
        </mxCell>
        <mxCell id="nacKLoMMVzw_O25OrjiA-94" style="edgeStyle=orthogonalEdgeStyle;rounded=0;orthogonalLoop=1;jettySize=auto;html=1;exitX=0.476;exitY=0.914;exitDx=0;exitDy=0;entryX=0.5;entryY=0;entryDx=0;entryDy=0;exitPerimeter=0;" edge="1" parent="1" source="nacKLoMMVzw_O25OrjiA-89" target="nacKLoMMVzw_O25OrjiA-93">
          <mxGeometry relative="1" as="geometry">
            <mxPoint x="137" y="1020" as="sourcePoint" />
            <mxPoint x="57" y="1115" as="targetPoint" />
          </mxGeometry>
        </mxCell>
        <mxCell id="nacKLoMMVzw_O25OrjiA-95" value="" style="ellipse;html=1;shape=endState;fillColor=#000000;strokeColor=#ff0000;" vertex="1" parent="1">
          <mxGeometry x="-8" y="1280" width="30" height="30" as="geometry" />
        </mxCell>
      </root>
    </mxGraphModel>
  </diagram>
</mxfile>
